<?xml version="1.0" encoding="UTF-8"?>
<svg width="80px" height="88px" viewBox="0 0 80 88" version="1.1" xmlns="http://www.w3.org/2000/svg" xmlns:xlink="http://www.w3.org/1999/xlink">
    <!-- Generator: Sketch 46.2 (44496) - http://www.bohemiancoding.com/sketch -->
    <title>Timer Copy</title>
    <desc>Created with Sketch.</desc>
    <defs></defs>
    <g id="Startpagina-De-Hypotheekshop-(www.geldplan.nl/hypotheekshop)" stroke="none" stroke-width="1" fill="none" fill-rule="evenodd">
        <g id="startpagina_De-Hypotheekshop" transform="translate(-1261.000000, -1482.000000)" fill-rule="nonzero">
            <g id="stappen" transform="translate(259.000000, 1296.000000)">
                <g id="Timer-Copy" transform="translate(1002.000000, 186.000000)">
                    <path d="M40,11 L40,3.63636364 L49.0909091,3.63636364 L49.0909091,0 L27.2727273,0 L27.2727273,3.63636364 L36.3636364,3.63636364 L36.3636364,11 C15.6542073,11.9872833 -0.482951518,29.3207841 0.010830189,50.0478524 C0.504611896,70.7749207 17.448869,87.3203218 38.1818182,87.3203218 C58.9147673,87.3203218 75.8590245,70.7749207 76.3528062,50.0478524 C76.8465879,29.3207841 60.7094291,11.9872833 40,11 L40,11 Z M38.1818182,83.6363636 C19.1028905,83.6363636 3.63636364,68.1698368 3.63636364,49.0909091 C3.63636364,30.0119814 19.1028905,14.5454545 38.1818182,14.5454545 C57.2607459,14.5454545 72.7272727,30.0119814 72.7272727,49.0909091 C72.7272727,68.1698368 57.2607459,83.6363636 38.1818182,83.6363636 Z" id="Shape" fill="#56656C"></path>
                    <path d="M80,14.5454545 L71.8727273,6.4 L60.8,13.8 L72.5454545,25.5454545 L80,14.5454545 Z M66.4727273,14.3272727 L71.4363636,11.1272727 L75.2909091,14.9818182 L72.0363636,19.9090909 L66.4727273,14.3272727 Z" id="Shape" fill="#56656C"></path>
                    <path d="M34.0727273,47.9636364 C33.1373409,48.8990226 32.772031,50.2623778 33.1144061,51.5401393 C33.4567812,52.8179007 34.4548265,53.815946 35.732588,54.1583212 C37.0103494,54.5006963 38.3737046,54.1353863 39.3090909,53.2 L55.3454545,33.8545455 L53.4181818,31.9272727 L34.0727273,47.9636364 Z" id="Shape" fill="#74AFBE"></path>
                </g>
            </g>
        </g>
    </g>
</svg>